<?xml version="1.0" encoding="UTF-8" standalone="no"?>
<svg
   xmlns:dc="http://purl.org/dc/elements/1.1/"
   xmlns:cc="http://creativecommons.org/ns#"
   xmlns:rdf="http://www.w3.org/1999/02/22-rdf-syntax-ns#"
   xmlns:svg="http://www.w3.org/2000/svg"
   xmlns="http://www.w3.org/2000/svg"
   viewBox="0 0 1066.6667 1066.6667"
   height="1066.6667"
   width="1066.6667"
   xml:space="preserve"
   id="svg2"
   version="1.1"><metadata
     id="metadata8"><rdf:RDF><cc:Work
         rdf:about=""><dc:format>image/svg+xml</dc:format><dc:type
           rdf:resource="http://purl.org/dc/dcmitype/StillImage" /></cc:Work></rdf:RDF></metadata><defs
     id="defs6"><clipPath
       id="clipPath24"
       clipPathUnits="userSpaceOnUse"><path
         id="path22"
         d="M 0,800 H 800 V 0 H 0 Z" /></clipPath></defs><g
     transform="matrix(1.3333333,0,0,-1.3333333,0,1066.6667)"
     id="g10"><text
       id="text16"
       style="font-variant:normal;font-weight:bold;font-stretch:normal;font-size:77.99410248px;font-family:'Berlin Sans FB Demi';-inkscape-font-specification:BerlinSansFBDemi-Bold;writing-mode:lr-tb;fill:#185b2d;fill-opacity:1;fill-rule:nonzero;stroke:none"
       transform="matrix(1,0,0,-1,95.5918,328.8467)"><tspan
         id="tspan12"
         y="0"
         x="0 51.320118 101.47032 160.51186 187.26384 231.79846 280.85675">PROJECT</tspan><tspan
         id="tspan14"
         y="80.02195"
         x="0 51.008141 106.30596 165.50348 222.1272 265.95987 321.25769 378.03741 423.27399 456.73346">BANGLADESH</tspan></text>
<g
       id="g18"><g
         clip-path="url(#clipPath24)"
         id="g20"><g
           transform="translate(443.1148,330.433)"
           id="g26"><path
             id="path28"
             style="fill:#185b2d;fill-opacity:1;fill-rule:nonzero;stroke:none"
             d="m 0,0 c -0.62,2.85 -2.837,13.902 -2.185,23.478 0.058,0.849 -0.155,1.685 -0.642,2.382 -1.444,2.071 -4.542,6.585 -5.389,8.421 -1.117,2.419 2.233,9.303 1.116,11.163 -0.631,1.052 -1.619,2.461 -2.358,3.487 -0.647,0.896 -1.027,1.956 -1.094,3.06 l -0.641,10.571 v 0.417 c 0,1.401 0.556,2.744 1.547,3.734 l 0.313,0.314 -0.372,4.28 -4.465,4.465 -0.744,8.931 c 0,0 1.488,7.442 7.535,10.605 4.652,2.434 -6.059,2.334 -11.247,2.159 -3.401,-0.115 -6.065,2.976 -5.36,6.304 0.269,1.27 0.832,2.776 1.816,4.562 l 0.344,1.161 c 0.674,2.277 -0.162,4.727 -2.091,6.113 -3.312,2.38 -7.995,5.984 -8.115,7.424 -0.113,1.363 -0.334,6.559 -0.489,10.402 -0.104,2.589 1.109,5.065 3.247,6.529 2.217,1.52 4.75,3.508 5.057,4.838 0.558,2.419 -0.558,11.535 -0.558,11.535 l -0.372,11.908 c 0,0 -2.978,6.698 -6.699,6.884 -3.721,0.186 -12.093,1.303 -12.093,1.303 0,0 -3.001,3.325 -5.375,7.523 -0.992,1.751 -9.428,-1.611 -10.626,-1.266 -1.92,0.552 -0.745,10.302 -0.745,10.302 0,0 -3.163,3.721 -6.698,3.163 -3.535,-0.558 3.721,13.024 5.582,12.094 1.439,-0.72 0.986,4.904 0.707,7.49 -0.069,0.633 0.504,1.137 1.126,1.002 2.31,-0.5 7.057,-1.738 8.214,-3.654 1.231,-2.041 13.72,4.423 9.303,14.884 -2.718,6.438 -1.85,7.096 -0.813,7.275 0.652,0.112 1.301,0.018 1.966,0.066 5.319,0.382 27.993,-2.326 29.733,-1.573 2.305,0.998 8.001,8.187 4.651,8.187 -3.349,0 -10.233,2.046 -10.605,5.209 -0.247,2.094 -0.493,5.084 -0.631,6.867 -0.071,0.919 -0.676,1.709 -1.542,2.021 l -1.962,0.706 c -0.74,0.266 -1.555,0.122 -2.183,-0.351 -0.97,-0.73 -2.613,-1.661 -4.474,-1.428 -2.843,0.355 -12.815,3.257 -14.839,11.298 -0.208,0.825 -0.672,1.559 -1.309,2.123 -2.619,2.32 -9.158,8.089 -9.9,8.534 -0.692,0.415 -4.991,0.212 -7.145,0.081 -0.801,-0.048 -1.541,0.404 -1.867,1.137 -1.124,2.524 -2.81,8.607 3.097,14.819 0.443,0.466 0.731,1.06 0.778,1.701 l 0.41,5.597 c 0.047,0.654 0.4,1.247 0.952,1.601 l 7.472,4.793 c 0.898,0.577 1.485,1.518 1.652,2.573 0.418,2.624 2.076,7.532 8.647,7.318 1.153,-0.038 2.194,0.745 2.334,1.889 0.335,2.726 -0.51,7.091 -9.711,6.238 -1.066,-0.099 -1.862,0.969 -1.487,1.971 l 2.075,5.533 c 0.605,1.614 2.057,1.901 3.184,0.597 1.811,-2.096 3.839,-5.58 8.959,-7.287 9.489,-3.163 8.941,-8.688 10.234,-8.931 0,0 6.414,-3.433 8.93,-7.07 2.619,-3.785 12.171,-1.936 11.241,0.297 -0.931,2.233 -7.147,8.138 -7.147,8.138 0,0 -2.977,3.101 0.93,4.589 3.907,1.489 1.302,3.536 8.745,-3.721 7.345,-7.161 -2.164,-14.504 16.902,-26.14 0.44,-0.269 0.959,-0.429 1.473,-0.39 2.682,0.205 10.329,-2.57 12.138,-2.495 4.107,0.172 1.454,8.366 2.233,6.884 1.409,-2.68 -3.797,1.531 3.547,8.82 0.473,0.469 1.286,0.241 1.433,-0.408 l 0.602,-2.644 5.209,-1.489 c 0,0 3.337,-4.195 1.861,-6.325 -1.317,-1.901 3.676,-2.948 4.838,-8.187 0.329,-1.484 -5.396,-12.652 -1.675,-16.931 3.722,-4.28 -4.837,-27.537 -0.744,-28.281 4.093,-0.745 34.235,-9.303 37.956,-10.42 0,0 21.397,2.233 22.327,1.489 0.931,-0.745 7.628,-1.117 7.628,-1.117 0,0 11.537,3.536 14.699,2.419 0,0 14.885,0.93 20.839,-2.977 0,0 13.975,0.368 16.15,-0.359 0.028,-0.009 0.051,-0.009 0.079,-0.002 0.963,0.258 18.031,4.763 25.262,2.594 0,0 9.489,-7.815 13.954,-8.373 0,0 11.722,-6.884 10.42,-10.419 0,0 1.294,-2.829 -3.349,-3.163 -4.665,-0.336 -10.606,-1.117 -11.164,-0.558 -0.558,0.558 -0.186,-7.629 -0.186,-7.629 0,0 -7.247,-14.985 -8.368,-21.003 -0.437,-2.351 -1.991,-4.353 -4.228,-5.2 -1.885,-0.714 -4.533,-1.498 -8.242,-2.264 l -0.635,-4.581 c -0.431,-3.115 -3.695,-4.986 -6.591,-3.763 -1.527,0.644 -3.218,1.022 -4.868,0.716 0,0 1.86,-5.582 0.186,-6.14 0,0 -0.444,-2.221 -2.62,0.286 -1.064,1.226 -3.079,0.828 -3.578,-0.716 -0.649,-2.009 -1.434,-3.75 -1.989,-2.733 0,0 -1.658,-2.11 -11.348,-0.497 -1.685,0.28 -3.182,-1.088 -3.039,-2.79 0.159,-1.894 0.09,-3.874 -0.87,-3.969 0,0 -3.907,-1.489 -6.698,-1.303 0,0 -1.302,-12.094 -3.349,-13.396 0,0 -0.646,-2.713 -3.015,-3.618 -0.757,-0.289 -1.089,-1.17 -0.639,-1.845 l 0.091,-0.136 c 0.872,-1.302 0.798,-3.009 -0.179,-4.234 -0.055,-0.07 -0.11,-0.141 -0.165,-0.214 -1.116,-1.489 6.698,-11.536 6.512,-17.49 0,0 1.291,-8.776 3.416,-15.345 0.892,-2.758 4.894,-2.201 5.029,0.695 0.062,1.325 0.227,2.658 0.56,3.845 0.325,1.161 1.961,1.205 2.367,0.07 2.128,-5.936 7.304,-19.43 10.211,-18.848 3.721,0.744 15.629,1.86 13.396,12.652 0,0 -5.582,16.745 9.303,21.955 v 10.561 c 0,1.992 1.79,3.35 3.767,3.12 1.047,-0.122 2.373,0.18 4.047,1.204 l 5.137,3.138 c 0.799,0.489 1.844,0.107 2.14,-0.781 l 0.36,-1.079 c 0.26,-0.781 1.235,-1.042 1.851,-0.494 l 1.15,1.022 c 0.404,0.359 1.043,0.163 1.167,-0.364 0.967,-4.155 4.315,-18.199 6.07,-21.345 0.503,-0.903 0.853,-1.878 0.951,-2.906 0.708,-7.464 2.955,-30.445 4.143,-34.511 0.083,-0.281 0.54,-0.219 0.617,-0.502 1.22,-4.427 9.826,-36.026 8.789,-41.906 l 0.086,-7.443 c 0,0 0.286,-22.326 2.518,-26.792 0,0 4.094,-23.072 2.233,-28.653 -0.419,-1.259 -0.839,-2.158 -1.237,-2.796 -0.761,-1.218 -2.585,-1.049 -3.13,0.281 l -1.909,4.668 c -0.484,1.184 -1.61,1.981 -2.888,2.045 l -3.82,0.191 c -0.98,0.049 -1.876,0.57 -2.391,1.406 -0.934,1.518 -4.266,3.053 -3.378,3.025 1.5,-0.048 -12.505,-2.494 -11.76,-19.984 l 7.267,-18.341 c 0.262,-0.662 -0.226,-1.381 -0.939,-1.381 h -0.027 c -0.894,0 -1.708,0.515 -2.092,1.322 l -6.442,13.563 -5.609,6.268 c -0.466,0.521 -0.752,1.177 -0.818,1.873 l -0.844,9.009 c -0.099,1.059 -0.64,2.01 -1.448,2.702 -1.487,1.276 -3.583,4.051 -2.257,8.98 0.162,0.602 -0.46,1.11 -1.003,0.804 l -2.785,-1.566 c -1.08,-0.608 -2.477,-0.19 -2.983,0.942 -0.867,1.939 -1.565,5.747 -0.052,12.928 1.072,5.083 -0.267,10.456 -3.889,14.181 -15.307,15.741 -11.011,40.801 -22.23,57.666 -0.67,1.006 -1.783,1.625 -2.992,1.601 -3.679,-0.075 -11.294,-0.971 -9.259,-7.263 0.403,-1.246 0.264,-2.608 -0.378,-3.749 -1.712,-3.035 -5.47,-9.089 -7.867,-9.089 -3.349,0 -4.757,1.069 -4.757,1.069 0,0 -14.327,12.113 -16.416,16.395 -3.113,6.382 3.721,-2.976 3.721,-2.976 -2.817,2.887 -26.02,26.921 -13.024,41.305 l -5.21,16.373 -0.744,-8.931 -4.837,-4.093 0.816,-0.561 c 3.129,-2.152 4.714,-5.933 4.054,-9.672 l -0.033,-0.186 -1.524,-5.84 c -0.366,-1.401 -0.114,-2.891 0.712,-4.08 2.743,-3.945 7.1,-14.537 7.138,-15.385 0.069,-1.521 0.569,-7.212 10.86,-24.443 1.176,-1.969 1.768,-4.234 1.701,-6.526 -0.15,-5.123 -1.994,-14.174 -11.644,-22.643 -0.781,-0.685 -1.892,-0.848 -2.856,-0.462 l -2.438,0.975 c -0.966,0.386 -2.066,0.19 -2.839,-0.505 l -1.389,-1.25 c -0.49,-0.44 -1.271,-0.209 -1.441,0.428 l -0.707,2.651 c -0.261,0.977 -0.08,2.019 0.494,2.852 l 5.997,8.695 c 0.318,0.461 0.908,0.646 1.432,0.45 l 0.932,-0.349 c 0.581,-0.219 1.211,0.175 1.269,0.793 l 1.567,16.601 c 0.108,1.158 -0.456,2.275 -1.454,2.874 l -2.25,1.35 c -0.46,0.277 -1.013,-0.189 -0.805,-0.684 1.866,-4.436 4.437,-17.225 -16.109,-34.764 0,0 -7.113,-22.327 -16.788,-13.024 l 0.744,4.093 -1.989,-0.331 c -0.916,-0.153 -1.596,0.839 -1.11,1.63 2.068,3.37 4.752,9.251 -5.459,4.283 0,0 -5.954,3.722 -4.838,14.141 0,0 -4.578,6.54 2.207,13.796 0.501,0.536 -0.107,1.364 -0.767,1.043 -2.564,-1.245 -6.276,-5.8 -5.533,-21.909 0,0 13.024,-17.49 -12.652,-15.257 l 2.659,-3.102 c 0.739,-0.863 0.169,-2.199 -0.966,-2.262 L 30.67,-3.303 30.069,-5.258 c -0.283,-0.918 -1.594,-0.898 -1.834,0.032 -0.968,3.768 -2.028,10.953 0.329,20.15 0.275,1.073 -1.022,1.857 -1.848,1.119 -2.433,-2.175 -5.378,-5.576 -4.233,-8.555 L 20.251,-4.419 c 0,0 -2.233,-4.466 -7.442,4.093 0,0 -1.117,-13.769 -6.327,-10.792 0,0 -1.325,4.861 -1.252,8.453 0.028,1.394 -1.18,2.486 -2.563,2.302 L 0.866,-0.604 C 0.462,-0.658 0.086,-0.398 0,0" /></g><g
           transform="translate(559.9737,472.2777)"
           id="g30"><path
             id="path32"
             style="fill:#ed3145;fill-opacity:1;fill-rule:nonzero;stroke:none"
             d="m 0,0 c 0,-16.541 -6.853,-31.481 -17.873,-42.138 -10.545,-10.196 -24.908,-16.471 -40.736,-16.471 -32.369,0 -58.608,26.24 -58.608,58.609 0,32.369 26.239,58.608 58.608,58.608 C -26.24,58.608 0,32.369 0,0" /></g><g
           transform="translate(535.7798,424.8324)"
           id="g34"><path
             id="path36"
             style="fill:#ed3145;fill-opacity:1;fill-rule:nonzero;stroke:none"
             d="M 0,0 V 0.002" /></g><g
           transform="translate(536.6729,429.8939)"
           id="g38"><path
             id="path40"
             style="fill:#ed3145;fill-opacity:1;fill-rule:nonzero;stroke:none"
             d="M 0,0 0.183,1.038" /></g><g
           transform="translate(530.7193,433.9872)"
           id="g42"><path
             id="path44"
             style="fill:#ed3145;fill-opacity:1;fill-rule:nonzero;stroke:none"
             d="M 0,0 0.183,1.038" /></g><g
           transform="translate(535.5567,438.0804)"
           id="g46"><path
             id="path48"
             style="fill:#ed3145;fill-opacity:1;fill-rule:nonzero;stroke:none"
             d="M 0,0 0.183,1.039" /></g><g
           transform="translate(536.7647,448.2206)"
           id="g50"><path
             id="path52"
             style="fill:#ed3145;fill-opacity:1;fill-rule:nonzero;stroke:none"
             d="M 0,0 0.183,1.039" /></g><g
           transform="translate(541.5103,430.638)"
           id="g54"><path
             id="path56"
             style="fill:#ed3145;fill-opacity:1;fill-rule:nonzero;stroke:none"
             d="M 0,0 0.184,1.039" /></g><g
           transform="translate(535.961,425.8607)"
           id="g58"><path
             id="path60"
             style="fill:#ed3145;fill-opacity:1;fill-rule:nonzero;stroke:none"
             d="M 0,0 0.184,1.038" /></g></g></g></g></svg>