<svg xmlns="http://www.w3.org/2000/svg" width="570.8078" height="417.1566" viewBox="0 0 570.8078 417.1566"><defs><style>.cls-1{fill:#ed3145;}.cls-2{fill:#185b2d;}</style></defs><title>PB Logo</title><g id="Layer_4" data-name="Layer 4"><path class="cls-1" d="M144.7188,438.0968q0,9.2169-4.8364,14.9287-5.18,6.055-14.2813,6.0552-1.5234,0-4.5888-.1714t-4.5889-.1714q-1.6377,0-1.6377,1.4092,0,1.752.3428,5.2173t.3427,5.1792q0,.8767-.8.876-2.3232,0-6.9692-.1333t-6.9692-.1333a.976.976,0,0,1-1.1045-1.1045q0-4.2269.1333-12.7007t.1333-12.7007q0-11.9575-1.0284-25.1348l-.038-.5332q-.0762-.7228,1.1425-.8759,2.9708-.38,13.1006-.3809,5.9788,0,11.4634.1524,9.0257.2673,14.5474,5.6743Q144.7186,429.11,144.7188,438.0968Zm-15.1948.6094q0-8.8733-8.645-8.8735-6.0937,0-6.398.6855-.2665.4959-.2666,8.7974,0,1.1807.0952,3.4843t.0952,3.4849q0,.7624,6.855.7617Q129.523,447.0465,129.524,438.7062Z" transform="translate(-98.8242 -135.9964)"/><path class="cls-1" d="M195.7989,470.7721q0,.2665-.7613.3809a65.9207,65.9207,0,0,1-7.2739.2285,64.69,64.69,0,0,1-6.7788-.2285,3.8744,3.8744,0,0,1-.9521-.1905,1.6837,1.6837,0,0,1-.5332-.7617q-.5713-1.4853-1.6758-4.4175-1.4855-3.8077-4.646-11.2343-.6857-1.4855-3.1612-1.6377,1.1427.0768-3.9223.0761-.5713,0-.5713,1.9424,0,2.59.4761,7.7305t.476,7.731q0,.6481-.3427.7617-.534.0374-1.0664.0761-2.2472.1516-7.0074.1524a50.457,50.457,0,0,1-6.55-.2285q-1.1045-.2286-1.1044-1.1807,0-4.1888.4-12.6435t.4-12.6817q0-16.1088-.7237-25.1348l-.0381-.5332q-.0381-.6467,1.2-.8759t11.6343-.4571q7.0452-.1515,11.2349-.1523,8.6829,0,14.167,3.9228,6.2065,4.4181,6.2075,12.7579a20.6169,20.6169,0,0,1-1.6,8.873,18.0766,18.0766,0,0,1-5.9028,6.436q-.8768.61-.876,1.1426,0-.0374,4.646,9.5591T195.7989,470.7721Zm-15.9947-34.1606q0-4.6458-3.0468-6.4361-2.3613-1.37-7.3877-1.3706-3.6189,0-3.8467,1.104a66.0974,66.0974,0,0,0-.2285,7.4644q0,.8768.0381,2.59t.0381,2.5513q0,.1911,1.2187.3809a33.38,33.38,0,0,0,4.8745.3427Q179.8041,443.2379,179.8042,436.6115Z" transform="translate(-98.8242 -135.9964)"/><path class="cls-1" d="M253.4678,444.4948q0,11.8821-7.5786,19.9175a27.4467,27.4467,0,0,1-39.1113-.0762,29.7521,29.7521,0,0,1,0-39.7588,27.1805,27.1805,0,0,1,39.0351,0A28.012,28.012,0,0,1,253.4678,444.4948Zm-14.4336-.0762a14.3177,14.3177,0,0,0-3.4653-9.7109,12.0062,12.0062,0,0,0-18.356.1523,15.1054,15.1054,0,0,0-.2285,19.3462,12.2742,12.2742,0,0,0,18.47-.2285A14.1163,14.1163,0,0,0,239.0342,444.4186Z" transform="translate(-98.8242 -135.9964)"/><path class="cls-1" d="M278.271,450.4738q0,9.5214-1.5615,14.7383-2.8191,9.2541-9.0639,14.51a2.0407,2.0407,0,0,1-1.1807.6475,1.1473,1.1473,0,0,1-.8374-.4951q-1.3338-1.5622-4.1514-4.6846-1.6377-1.37-4.8364-4.2651a1.2743,1.2743,0,0,1-.419-.7618,1.04,1.04,0,0,1,.419-.7236,40.4726,40.4726,0,0,0,3.58-3.3892,12.4887,12.4887,0,0,0,2.2851-4.4941q1.0658-3.6928,1.0664-12.1484,0-19.574-1.371-30.3521a3.1492,3.1492,0,0,1-.0762-.5713q0-.6855,1.2187-.6855t3.5987.1142q2.38.1143,3.5991.1143,1.1426,0,3.3891-.1143t3.39-.1142q1.1037,0,1.1045.99,0,5.2558-.0762,15.8237T278.271,450.4738Z" transform="translate(-98.8242 -135.9964)"/><path class="cls-1" d="M325.3526,459.3092a49.578,49.578,0,0,1-.647,6.0171q-.6855,4.7607-1.2187,5.6743a1.4178,1.4178,0,0,1-1.2569.7237,9.2747,9.2747,0,0,1-1.1426-.1143q-2.78-.3809-16.2231-.3809-2.9334,0-8.7212-.038t-8.6831-.0381q-1.2568,0-1.2568-1.1045,0-4.2649.476-12.815t.4761-12.8149q0-4.341-.457-16.1851-.1143-3.0468-.419-9.102l-.038-.5332q-.0762-.8753.9521-.876,2.8184,0,8.4736.1524t8.4737.1523q2.78,0,8.3779-.1523t8.3784-.1524q1.98,0,2.2852,1.4854.19.8766.59,5.3125t.4,5.3886q0,.8-.7617.8c-.1524,0-.419-.0122-.8-.038q-10.1309-.8373-18.2036-.8379-2.0193,0-2.4756.9521a11.9192,11.9192,0,0,0-.19,2.9326q0,2.59.7617,3.4273a3.2706,3.2706,0,0,0,2.4756.7236q.38,0,1.4848-.0571t1.8281-.0572q4.7989,0,9.7115-.2666.4182-.0374,2.0942-.19a18.68,18.68,0,0,1,2.0567-.1523q.9139,0,.914.876a54.9584,54.9584,0,0,0-.6855,5.8266q-.3054,3.0476-.3047,6.0933,0,.7624-1.1045.7617l-3.4273-.3809q-2.1708-.2284-9.9018-.2285h-4.0366q-1.5623,0-1.8282.7617-.0379.1912-.038,2.3614a11.1986,11.1986,0,0,0,.3808,3.7319q.6476,1.4479,4.8745,1.7139h5.56q2.0186,0,5.998-.3619t5.96-.3618Q325.3524,457.9381,325.3526,459.3092Z" transform="translate(-98.8242 -135.9964)"/><path class="cls-1" d="M375.3667,462.546a2.8929,2.8929,0,0,1-.8,1.6q-7.0077,8.34-18.6225,8.34-11.8821,0-19.27-8.1118-7.1984-7.845-7.1978-19.8033A28.8456,28.8456,0,0,1,336.522,424.92a23.6843,23.6843,0,0,1,18.6987-8.4546q12.3384,0,19.3462,7.5786a2.3833,2.3833,0,0,1,.7618,1.4853q0,.7237-2.647,5.37a30.8659,30.8659,0,0,1-3.3325,5.2173,1.0307,1.0307,0,0,1-.7613.3046,10.1,10.1,0,0,1-1.9043-1.5229,20.1161,20.1161,0,0,0-4.0366-2.8565,13.6708,13.6708,0,0,0-6.2461-1.5234,10.8762,10.8762,0,0,0-8.9492,4.19,14.9467,14.9467,0,0,0-3.085,9.5966,15.2245,15.2245,0,0,0,3.085,9.7115,10.8019,10.8019,0,0,0,8.9492,4.2651,14.159,14.159,0,0,0,6.2842-1.4473,19.3811,19.3811,0,0,0,3.9605-2.6655,9.6838,9.6838,0,0,1,1.8662-1.4473,1.0626,1.0626,0,0,1,.7612.419q.6093.6855,3.3135,4.76A27.82,27.82,0,0,1,375.3667,462.546Z" transform="translate(-98.8242 -135.9964)"/><path class="cls-1" d="M417.0406,429.3756q0,.7624-.8379.7617-1.448,0-11.4629-.5712-.2286,9.6357-.2285,13.4433,0,4.4941.3618,13.52t.3618,13.5195q0,.7244-.3428.914a4.5487,4.5487,0,0,1-1.0664.1905,54.7667,54.7667,0,0,1-6.7026.3047,52.47,52.47,0,0,1-6.8931-.3047,1.1181,1.1181,0,0,1-1.0664-1.1807q0-4.4934.3809-13.4814t.3808-13.4815q0-2.97-.3046-13.2529-7.6173.7624-12.1485.7617-.61,0-.6094-.3809a22.201,22.201,0,0,1,.5332-2.9321q.6087-2.6652.6856-3.2373.1143-1.7894.2666-3.58.2658-2.8565.9141-2.8564c.05,0,.2285.0132.5327.0381a153.7036,153.7036,0,0,0,18.2422.8q3.4269,0,12.6435-.7237,4.95-.38,4.9888-.3808a2.091,2.091,0,0,1,.876.0952q.1141.096.1523.7427,0,1.0282-.0762,2.8564-.0768,2.0185-.0761,2.856a22.829,22.829,0,0,0,.2475,2.7993A22.9716,22.9716,0,0,1,417.0406,429.3756Z" transform="translate(-98.8242 -135.9964)"/><path class="cls-2" d="M144.1094,534.7208a16.19,16.19,0,0,1-4.3794,11.6153q-4.9891,5.2939-17.518,5.2934-.9522,0-2.7422-.038h-2.7036q-14.0531,0-16.7188-.5713-1.1044-.2286-1.1045-1.1807,0-4.0745.4761-12.3389t.4761-12.3769q0-4.4172-.4571-16.604-.1141-3.1224-.4189-9.3687l-.0381-.5332q-.0381-.7228,1.2-.876,1.237-.1515,8.8164-.1523,12.1479,0,14.2051.0762,9.3684.3428,13.8242,3.0468,5.9027,3.6183,5.9028,12.2247a9.98,9.98,0,0,1-1.371,4.76,19.8117,19.8117,0,0,1-2.59,3.58,9.0728,9.0728,0,0,1-1.4092,1.4468q0,.2673.99.8379a10.2984,10.2984,0,0,1,4.1894,4.8369A14.9029,14.9029,0,0,1,144.1094,534.7208ZM127.7339,513.28a4.2409,4.2409,0,0,0-3.2749-4.3413,22.3449,22.3449,0,0,0-6.0175-.5713q-4.1126,0-4.1128.6094,0,.7236-.1333,2.19t-.1333,2.19q0,3.8087.6474,4.2651.4189.3429,4.8364.3428Q127.7337,517.964,127.7339,513.28Zm1.1426,21.2886a4.588,4.588,0,0,0-2.8564-4.6465,16.7359,16.7359,0,0,0-5.941-.7617q-4.9124,0-5.3315.3618t-.4189,4.6655q0,4.4942.4951,4.97t5.4839.476a17.9069,17.9069,0,0,0,5.7885-.6474A4.2972,4.2972,0,0,0,128.8765,534.5685Z" transform="translate(-98.8242 -135.9964)"/><path class="cls-2" d="M200.3477,550.22q0,.6855-.9521.9521a43.7143,43.7143,0,0,1-7.0835.3047,48.1032,48.1032,0,0,1-7.0074-.3047,2.0524,2.0524,0,0,1-1.6377-1.7139q-1.2948-5.4836-2.018-5.8647-.61-.2659-10.2066-.2666-6.4746,0-6.893.3428-.6483.61-1.4473,4.0752-.7236,3.1611-1.7515,3.4272a64.0193,64.0193,0,0,1-8.6831.3047q-5.8264,0-5.8266-1.1045,0-.99,8.6069-24.335,9.33-25.2487,10.13-27.7627.457-1.4464,1.0664-1.4472,1.0282,0,3.18.19t3.2182.19q1.0284,0,3.0274-.1333t2.99-.1333q.723,0,1.333,1.2569,1.8655,3.999,10.8916,27.42Q200.3467,549.1925,200.3477,550.22Zm-27.001-34.6934q-.8,1.6758-2.7041,7.2734-2.0566,5.9415-2.0561,6.9693,0,.6855,2.2846.7617,1.18.077,3.8848.0762,2.5129,0,2.78-.6094a1.4813,1.4813,0,0,0,.0762-.5332,37.1444,37.1444,0,0,0-1.752-6.9312A53.85,53.85,0,0,0,173.3467,515.527Z" transform="translate(-98.8242 -135.9964)"/><path class="cls-2" d="M256.3575,498.9225q0,4.3417-.3618,13.0435t-.3619,13.0815v25.0967q0,1.0283-1.1045,1.0283-.914,0-2.7612.0762t-2.7607.0761q-.9911,0-2.9707-.1523t-2.97-.1523q-.6856,0-1.6377-1.2569-2.7423-3.6936-12.3389-16.3755-2.628-3.5419-7.9976-10.435a1.5956,1.5956,0,0,0-.5713-.4571,1.0563,1.0563,0,0,0-.3046.8379q0,4.4187.2475,13.253.2476,8.8359.2476,13.2529,0,1.3338-1.0283,1.333H206.5064q-1.1045,0-1.1045-1.1807,0-4.1126.4-12.415t.4-12.4531q0-4.3792-.3618-13.1006t-.3618-13.0625q0-.8372,1.4853-.8379,2.2083,0,5.4458-.3047.7617-.0754,3.0088-.4951a18.0159,18.0159,0,0,1,3.0083-.3428q.4571,0,1.4092,1.2949l14.2051,19.4605q1.9035,2.6278,5.75,7.6929.9513,1.1807,1.6377,1.1806.4942,0,.4951-2.9707,0-3.9982-.438-12.0342t-.438-12.0722q0-1.4085.8-1.4092,2.2851,0,6.8931-.19t6.893-.19Q256.3568,497.7418,256.3575,498.9225Z" transform="translate(-98.8242 -135.9964)"/><path class="cls-2" d="M314.7281,549.9538q.0754,1.0283-1.0664,1.0283a28.253,28.253,0,0,1-4.17-.8379q-3.4469-.8371-4.2461-1.1426a41.7631,41.7631,0,0,1-15.271,3.1231q-11.7678,0-19.3081-7.8453-7.4649-7.7307-7.4644-19.5366,0-12.0717,7.2358-20.0317,7.4634-8.2259,19.3843-8.2261a27.13,27.13,0,0,1,10.8916,2.209,20.6477,20.6477,0,0,1,8.6826,6.855,2.9114,2.9114,0,0,1,.6475,1.2949q0,1.2195-3.4082,5.4648t-4.3984,4.2461a7.4337,7.4337,0,0,1-1.752-1.561,16.1079,16.1079,0,0,0-3.8086-2.8945,13.261,13.261,0,0,0-6.3979-1.5616,10.92,10.92,0,0,0-9.0635,4.2657,15.22,15.22,0,0,0-3.1231,9.7871q0,6.2079,3.2373,9.8257,3.3508,3.7323,9.4825,3.7319a23.4256,23.4256,0,0,0,8.6831-1.9424q-.1143-1.2568-.6856-6.3979a53.9764,53.9764,0,0,1-.4951-6.398q0-.7228.4951-.876a1.7823,1.7823,0,0,1,.6094-.0761q1.1045,0,3.3325.2094t3.37.21q1.2181,0,3.6558-.1714t3.6563-.1714q.9513,0,.9521,1.2569,0,1.8281-.2095,5.5219t-.2094,5.5225q0,4.9124.7236,14.7Z" transform="translate(-98.8242 -135.9964)"/><path class="cls-2" d="M356.2276,551.82q-3.2754,0-8.5308-.1524-6.8547-.1522-8.53-.19l-11.3872-.1524q-1.713.0375-4.9126-.1523-1.1044-.19-1.1044-1.1807,0-4.1505.1333-12.434t.1333-12.4341q0-4.4172-.2666-13.2339t-.2666-13.2339q0-.8371,1.1425-.8379t3.4087.1143q2.2655.1141,3.37.1142,1.2569,0,3.7325-.1333t3.7319-.1333q.5713,0,.5332.7237l-.0381.4951q-.4571,7.16-1.0283,21.5171L336.31,530.57q0,4.8758.0381,7.1216.0374.4569.0762.914a.6222.6222,0,0,0,.5713.5713h.99q3.4271,0,10.2632-.3618t10.2636-.3618q1.0284,0,1.0284.876a57.6294,57.6294,0,0,1-.9522,11.2343q-.1911.99-.8,1.1807A7.9209,7.9209,0,0,1,356.2276,551.82Z" transform="translate(-98.8242 -135.9964)"/><path class="cls-2" d="M415.2842,550.22q0,.6855-.9521.9521a43.7134,43.7134,0,0,1-7.0835.3047,48.1,48.1,0,0,1-7.0073-.3047,2.0522,2.0522,0,0,1-1.6377-1.7139q-1.2949-5.4836-2.0181-5.8647-.61-.2659-10.2065-.2666-6.4748,0-6.8931.3428-.6481.61-1.4473,4.0752-.7236,3.1611-1.7514,3.4272a64.0224,64.0224,0,0,1-8.6832.3047q-5.8263,0-5.8266-1.1045,0-.99,8.6069-24.335,9.33-25.2487,10.13-27.7627.457-1.4464,1.0664-1.4472,1.0284,0,3.18.19t3.2183.19q1.0283,0,3.0273-.1333t2.99-.1333q.7228,0,1.333,1.2569,1.8654,3.999,10.8916,27.42Q415.2833,549.1925,415.2842,550.22Zm-27.001-34.6934q-.8,1.6758-2.7041,7.2734-2.0565,5.9415-2.0561,6.9693,0,.6855,2.2847.7617,1.18.077,3.8847.0762,2.5129,0,2.78-.6094a1.4813,1.4813,0,0,0,.0762-.5332,37.1444,37.1444,0,0,0-1.752-6.9312A53.8338,53.8338,0,0,0,388.2832,515.527Z" transform="translate(-98.8242 -135.9964)"/><path class="cls-2" d="M470.0367,524.1715a28.54,28.54,0,0,1-7.1978,19.4224q-6.36,7.3506-17.8608,7.7309-2.21.0762-12.1485.0762-1.8669,0-5.6176-.1142t-5.6172-.1143q-1.1046,0-1.1045-.876,0-4.1888.3237-12.5864t.3237-12.5864q0-4.3792-.3237-13.12t-.3237-13.0815q0-.8,1.1045-.9521,2.704-.3041,8.8735-.3047,11.7289,0,15.1953.3427,9.0257.9141,14.1284,4.57a23.1493,23.1493,0,0,1,7.5787,9.5966A28.5473,28.5473,0,0,1,470.0367,524.1715Zm-14.586,0a14.6938,14.6938,0,0,0-3.8462-10.5107,13.2976,13.2976,0,0,0-10.2827-4.2276q-5.8652,0-5.8647,1.5616,0,2.2477-.0762,6.76t-.0762,6.76q0,2.209.0762,6.6455t.0762,6.6836q0,1.6377,6.0932,1.6377,6.5882,0,10.3589-4.38Q455.4506,530.9513,455.4507,524.1715Z" transform="translate(-98.8242 -135.9964)"/><path class="cls-2" d="M516.106,539.3288a49.5769,49.5769,0,0,1-.647,6.017q-.6855,4.7608-1.2187,5.6744a1.4179,1.4179,0,0,1-1.2569.7236,9.2718,9.2718,0,0,1-1.1425-.1143q-2.78-.3809-16.2232-.3808-2.9333,0-8.7212-.0381t-8.6831-.0381q-1.2568,0-1.2568-1.1045,0-4.2648.4761-12.8149t.476-12.815q0-4.341-.457-16.185-.1143-3.047-.4189-9.1021l-.0381-.5332q-.0762-.8753.9521-.876,2.8183,0,8.4737.1524t8.4736.1523q2.7795,0,8.3779-.1523t8.3784-.1524q1.98,0,2.2852,1.4854.19.8767.59,5.3125t.4,5.3887q0,.8-.7617.8c-.1523,0-.4189-.0122-.8-.0381q-10.1308-.8371-18.2036-.8379-2.0193,0-2.4756.9521a11.9258,11.9258,0,0,0-.19,2.9327q0,2.59.7617,3.4272a3.2706,3.2706,0,0,0,2.4756.7236q.38,0,1.4848-.0571t1.8282-.0571q4.7988,0,9.7114-.2666.4182-.0373,2.0942-.19a18.7052,18.7052,0,0,1,2.0567-.1523q.914,0,.914.876a54.9716,54.9716,0,0,0-.6855,5.8266q-.3054,3.0477-.3047,6.0933,0,.7624-1.1045.7617l-3.4272-.3808q-2.1709-.2286-9.9019-.2286h-4.0366q-1.5623,0-1.8281.7618-.0381.1911-.0381,2.3613a11.1986,11.1986,0,0,0,.3808,3.7319q.6476,1.4481,4.8745,1.7139h5.56q2.0186,0,5.9981-.3618t5.96-.3618Q516.1057,537.9577,516.106,539.3288Z" transform="translate(-98.8242 -135.9964)"/><path class="cls-2" d="M548.314,533.6544q0,7.7315-6.5122,13.253a27.8227,27.8227,0,0,1-13.9,6.2075,4.29,4.29,0,0,1-.4951.0381q-.8767,0-3.8848-5.3506t-3.0083-6.5313q0-.419.5713-.5332a40.2732,40.2732,0,0,0,7.312-2.1328q3.96-1.98,3.96-5.8647,0-2.4748-2.59-5.522-4.4942-5.1789-4.8745-5.75a15.5083,15.5083,0,0,1-2.6279-8.7593q0-6.969,6.436-11.5771a28.9084,28.9084,0,0,1,12.91-4.9507q.4189-.0381.6474-.0381.5714,0,.9141.9136.99,2.781,4.6084,10.0542a.9052.9052,0,0,1,.1138.3809q0,.6481-.6851.6474a7.614,7.614,0,0,1-1.0283-.1142,7.6877,7.6877,0,0,0-1.1045-.1143,9.0153,9.0153,0,0,0-4.7983,1.2568,4.4748,4.4748,0,0,0-2.4756,4.0367q0,2.3232,2.7422,5.7124,4.8354,6.0938,5.0649,6.3979A15.3006,15.3006,0,0,1,548.314,533.6544Z" transform="translate(-98.8242 -135.9964)"/><path class="cls-2" d="M606.9136,549.9918q0,.8-.3428.99a3.0528,3.0528,0,0,1-1.0664.19q-2.3232.2284-6.55.2285a55.8459,55.8459,0,0,1-7.0263-.2285q-1.0482-.2284-1.0474-1.0283,0-3.0081.2857-9.0444t.2856-9.045q0-1.4853-.8379-1.7138a70.95,70.95,0,0,0-9.2163-.3047,72.5246,72.5246,0,0,0-9.292.3047q-.8379.1911-.8379,1.7138,0,2.9708.19,8.8926t.19,8.8921a1.1888,1.1888,0,0,1-1.0283,1.333,60.4388,60.4388,0,0,1-7.16.2285,55.1463,55.1463,0,0,1-6.55-.2285q-1.1045-.19-1.1045-1.1807,0-4.1126.4-12.415t.4-12.4531q0-4.4172-.3808-13.272t-.3809-13.272q0-.8372.8-.8379,1.18,0,3.561.1143t3.5606.1143q1.2188,0,3.6753-.1143t3.6748-.1143q.6474,0,.6474.6856,0,2.8565-.4189,8.55t-.4189,8.55q0,1.333.7236,1.561.99.3054,9.749.3047a73.809,73.809,0,0,0,9.4448-.3047q.9141-.2284.9141-1.561,0-2.7422-.2666-8.2832t-.2666-8.3213q0-1.18.9521-1.1807,1.1039,0,3.37.1143t3.4086.1143q1.1039,0,3.37-.1143t3.4087-.1143q1.1037,0,1.1044.9141,0,4.38-.3618,13.2148t-.3618,13.253q0,4.1514.4,12.4531T606.9136,549.9918Z" transform="translate(-98.8242 -135.9964)"/><path class="cls-2" d="M443.1147,469.5671c-.62-2.8495-2.8375-13.9021-2.185-23.4783a3.6976,3.6976,0,0,0-.642-2.3822,88.4186,88.4186,0,0,1-5.389-8.42c-1.1164-2.4187,2.2327-9.3029,1.1163-11.1635-.6311-1.0519-1.619-2.4605-2.3586-3.4863a5.8368,5.8368,0,0,1-1.094-3.06l-.6407-10.5711v-.4172a5.2816,5.2816,0,0,1,1.547-3.7346l.3136-.3137-.3721-4.2793-4.4654-4.4654-.7443-8.9309s1.4885-7.4423,7.5354-10.6053c4.6524-2.4336-6.0593-2.334-11.2474-2.1586a5.2642,5.2642,0,0,1-5.36-6.3045,16.852,16.852,0,0,1,1.8153-4.5611l.3442-1.1616a5.5717,5.5717,0,0,0-2.09-6.1128c-3.3123-2.38-7.9951-5.9848-8.1151-7.4242-.1135-1.3626-.3344-6.5589-.4893-10.402a7.5368,7.5368,0,0,1,3.2464-6.5295c2.2175-1.5195,4.75-3.5071,5.0574-4.8374.5582-2.4188-.5582-11.5357-.5582-11.5357l-.3721-11.9078s-2.9769-6.6981-6.6981-6.8842-12.0939-1.3024-12.0939-1.3024a47.6929,47.6929,0,0,1-5.3752-7.5227c-.9909-1.7517-9.4275,1.611-10.6258,1.266-1.9192-.5525-.7443-10.3025-.7443-10.3025s-3.163-3.7212-6.6981-3.163,3.7212-13.0242,5.5818-12.0939c1.4389.7195.986-4.9044.7068-7.49a.9274.9274,0,0,1,1.1259-1.0019c2.31.5,7.0578,1.7382,8.2145,3.6546,1.2312,2.04,13.72-4.4233,9.3029-14.8847-2.7182-6.4379-1.85-7.0958-.8125-7.2744.6518-.1123,1.3006-.0179,1.9649-.0658,5.32-.3829,27.9938,2.3253,29.7334,1.5723,2.305-.9977,8.0006-8.1866,4.6515-8.1866s-10.2333-2.0466-10.6054-5.21c-.2463-2.0937-.4926-5.0841-.631-6.8668a2.34,2.34,0,0,0-1.5425-2.02l-1.9618-.7063a2.32,2.32,0,0,0-2.1827.3508,6.3634,6.3634,0,0,1-4.4734,1.4282c-2.8434-.3554-12.8157-3.2569-14.84-11.2983a4.2206,4.2206,0,0,0-1.3086-2.1232c-2.6188-2.3191-9.1581-8.0884-9.9-8.5335-.6923-.4154-4.9915-.2125-7.1455-.0815a1.9125,1.9125,0,0,1-1.8669-1.1368c-1.1235-2.5233-2.8092-8.6062,3.0973-14.8193a2.7737,2.7737,0,0,0,.7779-1.7005l.41-5.5972a2.0823,2.0823,0,0,1,.9524-1.6006l7.4717-4.7932a3.7317,3.7317,0,0,0,1.6526-2.5725c.4174-2.6248,2.0759-7.5323,8.647-7.3183a2.2237,2.2237,0,0,0,2.3336-1.8887c.3345-2.7268-.51-7.0919-9.7112-6.2385a1.46,1.46,0,0,1-1.4862-1.9714l2.0745-5.5328c.605-1.6136,2.0569-1.9008,3.1837-.5969,1.8113,2.0961,3.8392,5.58,8.96,7.2868,9.489,3.163,8.9408,8.6883,10.2332,8.9308,0,0,6.4146,3.4333,8.9309,7.07,2.619,3.7854,12.17,1.9355,11.24-.2972s-7.1466-8.1375-7.1466-8.1375-2.977-3.101.93-4.5895,1.3025-3.5351,8.7448,3.7212c7.345,7.1614-2.1636,14.5039,16.9021,26.1407a2.5035,2.5035,0,0,0,1.4729.39c2.6823-.2051,10.3293,2.5705,12.1387,2.4949,4.1066-.1715,1.4535-8.3663,2.2327-6.8841,1.409,2.68-3.7974-1.5309,3.5472-8.82a.8541.8541,0,0,1,1.4331.4086l.6015,2.6438,5.21,1.4885s3.3368,4.196,1.8606,6.326c-1.3169,1.9,3.676,2.9474,4.8376,8.1866.3289,1.4837-5.3957,12.652-1.6746,16.9314s-4.8375,27.5367-.7442,28.281,34.2349,9.3029,37.9561,10.4193c0,0,21.3967-2.2327,22.327-1.4885s7.6285,1.1164,7.6285,1.1164,11.5356-3.5352,14.6986-2.4188c0,0,14.8848-.93,20.8386,2.9769,0,0,13.9748-.3677,16.15.3591a.127.127,0,0,0,.08.0016c.9624-.2573,18.03-4.7628,25.2616-2.5934,0,0,9.489,7.8145,13.9544,8.3727,0,0,11.7218,6.8842,10.4194,10.4193,0,0,1.2941,2.8288-3.3491,3.163-4.6653.3358-10.6054,1.1163-11.1636.5582s-.186,7.6284-.186,7.6284-7.2469,14.985-8.3677,21.0036a6.825,6.825,0,0,1-4.228,5.2,54.8955,54.8955,0,0,1-8.2429,2.2638l-.6344,4.5814a4.7848,4.7848,0,0,1-6.5917,3.7631,8.6031,8.6031,0,0,0-4.8678-.7161s1.8606,5.5818.1861,6.14c0,0-.4442,2.2209-2.6193-.286a2.1,2.1,0,0,0-3.5785.7165c-.649,2.0087-1.4339,3.75-1.9888,2.7325,0,0-1.6578,2.11-11.3483.4973a2.6093,2.6093,0,0,0-3.039,2.79c.1589,1.8933.0909,3.8733-.87,3.9693a19.94,19.94,0,0,1-6.6982,1.3024s-1.3024,12.0939-3.349,13.3963a5.5149,5.5149,0,0,1-3.0149,3.6178,1.24,1.24,0,0,0-.6391,1.8451l.091.136a3.5844,3.5844,0,0,1-.179,4.2345q-.0825.1035-.1653.2138c-1.1163,1.4884,6.6981,11.5356,6.5121,17.4895a113.7838,113.7838,0,0,0,3.4157,15.3453,2.5761,2.5761,0,0,0,5.03-.6951,17.5554,17.5554,0,0,1,.5591-3.8451,1.2451,1.2451,0,0,1,2.3679-.07c2.1274,5.9365,7.3039,19.43,10.21,18.8484,3.7212-.7442,15.629-1.8606,13.3963-12.652,0,0-5.5818-16.7453,9.3029-21.955V346.2075a3.24,3.24,0,0,1,3.7677-3.1193,6.4722,6.4722,0,0,0,4.0468-1.2036l5.1364-3.1389a1.456,1.456,0,0,1,2.14.7819l.3593,1.0779a1.1477,1.1477,0,0,0,1.8513.4949l1.15-1.0223a.71.71,0,0,1,1.1663.3634c.9679,4.1553,4.3163,18.2,6.071,21.3458a7.4164,7.4164,0,0,1,.9507,2.9055c.7082,7.4646,2.9548,30.4454,4.1432,34.5111.0822.2811.5393.22.6171.5022,1.219,4.4271,9.826,36.0262,8.7884,41.9062l.0866,7.4423s.2855,22.3271,2.5182,26.7925c0,0,4.0933,23.0713,2.2327,28.6531a13.2177,13.2177,0,0,1-1.2372,2.7955,1.7664,1.7664,0,0,1-3.13-.2808l-1.91-4.6678a3.2974,3.2974,0,0,0-2.8873-2.0449l-3.82-.191a2.9746,2.9746,0,0,1-2.3907-1.4062c-.9341-1.5181-4.2661-3.0527-3.3788-3.0245,1.5007.0477-12.5043,2.4937-11.76,19.9833l7.2671,18.3408a1.01,1.01,0,0,1-.9385,1.3814h-.0273a2.3158,2.3158,0,0,1-2.0919-1.3222l-6.4422-13.5625-5.6086-6.2685a3.266,3.266,0,0,1-.8178-1.8729l-.8446-9.009a4.0788,4.0788,0,0,0-1.4473-2.7017c-1.4875-1.2761-3.5833-4.0509-2.2578-8.9808a.6945.6945,0,0,0-1.003-.8034l-2.7847,1.5664a2.124,2.124,0,0,1-2.9828-.9418c-.8668-1.94-1.5651-5.748-.052-12.9284a15.67,15.67,0,0,0-3.8895-14.181c-15.3072-15.7409-11.01-40.8008-22.23-57.6661a3.5159,3.5159,0,0,0-2.9914-1.6007c-3.68.0746-11.2941.9708-9.2593,7.2629a4.6983,4.6983,0,0,1-.3783,3.7484c-1.7113,3.0349-5.47,9.09-7.8668,9.09-3.3491,0-4.7564-1.07-4.7564-1.07s-14.3276-12.1119-16.4167-16.395c-3.1129-6.3818,3.7212,2.9769,3.7212,2.9769-2.8168-2.8868-26.02-26.9216-13.0242-41.3051l-5.21-16.3732-.7443,8.9309-4.8375,4.0933.8163.5612a9.6926,9.6926,0,0,1,4.0541,9.6718l-.0329.1863-1.5237,5.8395a4.9494,4.9494,0,0,0,.712,4.08c2.7424,3.9447,7.0992,14.5363,7.1377,15.3841.0693,1.5214.5694,7.2127,10.86,24.4439a12.0428,12.0428,0,0,1,1.7009,6.5254c-.15,5.1234-1.9941,14.174-11.6439,22.6428a2.7724,2.7724,0,0,1-2.8561.4625l-2.438-.9752a2.7288,2.7288,0,0,0-2.839.5053l-1.3887,1.25a.8813.8813,0,0,1-1.4412-.428l-.7068-2.6505a3.4554,3.4554,0,0,1,.4942-2.8521l5.9972-8.696a1.2187,1.2187,0,0,1,1.4313-.4492l.9318.3494a.943.943,0,0,0,1.27-.7944l1.566-16.6a3.02,3.02,0,0,0-1.4531-2.8738l-2.2505-1.35a.5558.5558,0,0,0-.8045.6845c1.8657,4.4356,4.4367,17.2248-16.1089,34.7634,0,0-7.1131,22.3271-16.7881,13.0242l.7442-4.0933-1.9894.3315a1.0842,1.0842,0,0,1-1.11-1.63c2.0682-3.37,4.752-9.2506-5.4594-4.2829,0,0-5.9539-3.7212-4.8376-14.1405,0,0-4.5783-6.5405,2.2067-13.7966a.6578.6578,0,0,0-.7673-1.043c-2.5632,1.2458-6.2761,5.8009-5.5327,21.91,0,0,13.0242,17.4895-12.652,15.2568l2.6586,3.1016a1.3716,1.3716,0,0,1-.9653,2.2621l-3.926.2181-.6015,1.9548a.9529.9529,0,0,1-1.8333-.0322,40.73,40.73,0,0,1,.3291-20.15,1.1316,1.1316,0,0,0-1.8482-1.1192c-2.4329,2.1746-5.3782,5.5763-4.2327,8.5548l-2.2327,11.9077s-2.2327,4.4654-7.4424-4.0933c0,0-1.1163,13.7684-6.326,10.7915a36.86,36.86,0,0,1-1.2527-8.4529,2.2646,2.2646,0,0,0-2.5626-2.3013l-1.8014.24A.7762.7762,0,0,1,443.1147,469.5671Z" transform="translate(-98.8242 -135.9964)"/><path class="cls-1" d="M559.9735,327.7224a58.6086,58.6086,0,1,1-58.6086-58.6086A58.4369,58.4369,0,0,1,559.9735,327.7224Z" transform="translate(-98.8242 -135.9964)"/><path class="cls-1" d="M546.3918,364.95" transform="translate(-98.8242 -135.9964)"/><line class="cls-1" x1="436.9556" y1="239.1711" x2="436.956" y2="239.1689"/><line class="cls-1" x1="437.8488" y1="234.1097" x2="438.032" y2="233.0714"/><line class="cls-1" x1="431.8949" y1="230.0164" x2="432.0781" y2="228.9781"/><line class="cls-1" x1="436.7325" y1="225.9231" x2="436.9157" y2="224.8848"/><line class="cls-1" x1="437.9404" y1="215.7829" x2="438.1236" y2="214.7446"/><line class="cls-1" x1="442.6863" y1="233.3655" x2="442.8696" y2="232.3272"/><line class="cls-1" x1="437.137" y1="238.1431" x2="437.3203" y2="237.1048"/></g></svg>